<svg xmlns="http://www.w3.org/2000/svg" xmlns:xlink="http://www.w3.org/1999/xlink" width="40" height="40" viewBox="0 0 40 40"><defs><style>.a{fill:#3879f7;opacity:0.4;}.b{clip-path:url(#a);}.c{fill:#ec9422;}.d{fill:#fff;}</style><clipPath id="a"><rect class="a" width="40" height="40" transform="translate(50 437)"/></clipPath></defs><g class="b" transform="translate(-50 -437)"><path class="c" d="M20,40A20,20,0,1,1,40,20,20,20,0,0,1,20,40Z" transform="translate(50 437)"/><path class="d" d="M151.273,128.129H165.3v2.518c-.756.1-1.522.221-2.291.286a55.413,55.413,0,0,1-10.576-.1c-1.159-.124-1.159-.124-1.159-1.3Zm3.152-6.757c2.333,3,5.521,2.682,7.486.066.891.155.9.155.9,1.043,0,1.154-.012,2.313.009,3.469.008.409-.1.564-.538.562q-4.1-.023-8.2,0c-.365,0-.511-.1-.507-.488.019-1.309.022-2.62,0-3.928-.008-.667.589-.454.85-.722Zm-2.483,1.159c0,1.228.008,2.449-.015,3.673,0,.1-.216.275-.348.294-1.437.162-1.9.663-1.908,2.1,0,.559,0,1.12,0,1.836-.824-.287-1.568-.533-2.3-.814-.1-.036-.182-.247-.178-.377.134-3.013,1.4-5.724,4.613-6.736.015-.009.032,0,.134.025Zm12.554-.071a6.219,6.219,0,0,1,3.589,2.733,8.781,8.781,0,0,1,1.125,3.928.529.529,0,0,1-.4.613c-.595.192-1.183.394-1.869.626,0-.661-.026-1.214,0-1.769a1.778,1.778,0,0,0-1.975-2.077c-.377.031-.542-.082-.531-.507.032-1.106.011-2.209.014-3.316,0-.053.019-.1.04-.232Zm-.5-10.527a.607.607,0,0,0-.5-.25h0a0,0,0,0,0,0,0l-.032-.06a1.174,1.174,0,0,1-.1-.346,4.3,4.3,0,0,0-.267-1.014,4.561,4.561,0,0,0-1.341-1.8.751.751,0,0,0-.257-.2q-.221-.125-.45-.238c0,.42,0,.779,0,1.136,0,.241-.049.462-.386.467a.352.352,0,0,1-.4-.349q0-.052,0-.1c-.008-.371-.028-.742,0-1.112l0-.04a.514.514,0,0,0-.5-.63l-.015,0q-.073-.019-.148-.031a.425.425,0,0,1-.062-.009c-.238-.056-.443-.156-.448-.473,0-.062-.2-.162-.309-.17-.031,0-.065,0-.094,0a.105.105,0,0,0-.031,0,8.164,8.164,0,0,0-1.1.015c-.111.009-.3.113-.3.173,0,.335-.229.433-.485.488h0a.015.015,0,0,0-.011,0c-.039.006-.071.014-.1.022l-.057.011c-.382.074-.505.256-.494.566a.6.6,0,0,0,.006.074,11.456,11.456,0,0,1,.019,1.153l0,.107a.349.349,0,0,1-.4.349c-.338,0-.389-.224-.4-.464,0-.348-.014-.7-.019-1.1v-.057l-.019.011a3.812,3.812,0,0,0-.377.221,4.733,4.733,0,0,0-1.6,2.03,4.307,4.307,0,0,0-.263,1.051,1.239,1.239,0,0,1-.093.348h-.029a.567.567,0,0,0-.586.474.249.249,0,0,0,0,.046v.042a.406.406,0,0,0,.039.167.482.482,0,0,0,.428.263h1.208a12.358,12.358,0,0,0,1.5,0h8.1a.19.19,0,0,0,.042,0,.482.482,0,0,0,.4-.26.382.382,0,0,0,.04-.167V112.2a.5.5,0,0,0-.091-.27Zm-.819,3.713a3.32,3.32,0,0,0,.348-1.9H152.908a3.374,3.374,0,0,0,.335,1.941c-.783.3-.972.853-.494,1.349a6.993,6.993,0,0,0,.774.576,4.346,4.346,0,0,1,.59.494,17.208,17.208,0,0,0,1.87,2.1,3.469,3.469,0,0,0,4.439.02,17.29,17.29,0,0,0,1.814-2,3.029,3.029,0,0,1,.763-.661c1.1-.593,1.241-1.434.178-1.922Zm-1.406,2.307c-.667,1.077-1.936,2.882-3.894,2.627a4.125,4.125,0,0,1-2.6-1.712,7.141,7.141,0,0,1-.854-1.256c-.082-.158-.572-1.7-.624-1.7,0,0,3.636.44,6.185-1.455a4.958,4.958,0,0,0,.411-.337,1.678,1.678,0,0,0,.12.337,2.691,2.691,0,0,0,2.129,1.5A10.984,10.984,0,0,1,161.769,117.953Z" transform="translate(-88.202 338.12)"/></g></svg>