<svg xmlns="http://www.w3.org/2000/svg" xmlns:xlink="http://www.w3.org/1999/xlink" width="40" height="40" viewBox="0 0 40 40"><defs><style>.a{fill:#3879f7;opacity:0.4;}.b{clip-path:url(#a);}.c{fill:#b383f2;}.d{fill:#fff;}</style><clipPath id="a"><rect class="a" width="40" height="40" transform="translate(50 437)"/></clipPath></defs><g class="b" transform="translate(-50 -437)"><path class="c" d="M20,40A20,20,0,1,1,40,20,20,20,0,0,1,20,40Z" transform="translate(50 437)"/><g transform="translate(-29.559 356.02)"><path class="d" d="M46.6-449.6a4.335,4.335,0,0,1-4.331-4.33,4.336,4.336,0,0,1,4.331-4.331,4.335,4.335,0,0,1,4.33,4.331A4.335,4.335,0,0,1,46.6-449.6Zm-2-4.884a.8.8,0,0,0-.581.245.8.8,0,0,0-.229.576.8.8,0,0,0,.245.569l1.49,1.448a.8.8,0,0,0,.564.229.31.31,0,0,0,.041,0,.809.809,0,0,0,.58-.291l2.4-2.888a.81.81,0,0,0-.105-1.139.807.807,0,0,0-.516-.187.81.81,0,0,0-.623.292l-1.84,2.216-.862-.839A.8.8,0,0,0,44.6-454.481Zm-6.93,4.508H32.852a1.41,1.41,0,0,1-1.409-1.409v-9.048h-.81a1.055,1.055,0,0,1-.992-.665,1.056,1.056,0,0,1,.239-1.171L37.73-470a3.517,3.517,0,0,1,2.483-1.018,3.519,3.519,0,0,1,2.471,1.006l7.934,7.745a1.054,1.054,0,0,1,.244,1.171,1.055,1.055,0,0,1-.993.668h-.809v1.316a5.656,5.656,0,0,0-2.5-.575,5.732,5.732,0,0,0-4.626,2.363l-.023,0H39.436a1.765,1.765,0,0,0-1.762,1.763v5.591Zm.311-12.836a.788.788,0,0,0-.787.788.787.787,0,0,0,.787.787H42.52a.787.787,0,0,0,.787-.787.788.788,0,0,0-.787-.788Z" transform="translate(59.307 561.785)"/></g></g></svg>