<svg xmlns="http://www.w3.org/2000/svg" xmlns:xlink="http://www.w3.org/1999/xlink" width="40" height="40" viewBox="0 0 40 40"><defs><style>.a{fill:#cc1d1d;opacity:0.4;}.b{clip-path:url(#a);}.c{fill:#d84d4d;}.d{fill:#fff;}</style><clipPath id="a"><rect class="a" width="40" height="40" transform="translate(50 437)"/></clipPath></defs><g class="b" transform="translate(-50 -437)"><path class="c" d="M20,40A20,20,0,1,1,40,20,20,20,0,0,1,20,40Z" transform="translate(50 437)"/><g transform="translate(-73.504 336.341)"><path class="d" d="M136.79,109.714a1.945,1.945,0,0,0-1.935,1.761l-.743,8.145H142l.906-9.907Zm7.361,16.912a6.588,6.588,0,0,1,9.785-5.712l-.855-9.4a1.945,1.945,0,0,0-1.924-1.8H144.9L142.869,131.6h3.523a6.567,6.567,0,0,1-2.24-4.979Zm-10.935,2.861a1.945,1.945,0,0,0,1.935,2.118h5.773l.906-9.948h-7.9Z" transform="translate(0)"/><path class="d" d="M-39.5-429.341a5.006,5.006,0,0,1-5-5,5.005,5.005,0,0,1,5-5,5.006,5.006,0,0,1,5,5A5.006,5.006,0,0,1-39.5-429.341Zm-2.015-5.076a.5.5,0,0,0-.5.5.5.5,0,0,0,.5.5h1.5v1.8a.5.5,0,0,0,.5.5.5.5,0,0,0,.5-.5v-1.8h1.5a.5.5,0,0,0,.5-.5.5.5,0,0,0-.5-.5h-1.5v-1h1.727a.5.5,0,0,0,.5-.5.5.5,0,0,0-.5-.5h-.476v-.651a.5.5,0,0,0-.5-.5.5.5,0,0,0-.5.5v.651h-1.5v-.651a.5.5,0,0,0-.5-.5.5.5,0,0,0-.5.5v.651h-.451a.5.5,0,0,0-.5.5.5.5,0,0,0,.5.5h1.7v1Z" transform="translate(190 561)"/></g></g></svg>