<svg xmlns="http://www.w3.org/2000/svg" xmlns:xlink="http://www.w3.org/1999/xlink" width="40" height="40" viewBox="0 0 40 40"><defs><style>.a{fill:#3879f7;opacity:0.4;}.b{clip-path:url(#a);}.c{fill:#40b8d1;}.d{fill:#fff;}</style><clipPath id="a"><rect class="a" width="40" height="40" transform="translate(50 437)"/></clipPath></defs><g class="b" transform="translate(-50 -437)"><path class="c" d="M20,40A20,20,0,1,1,40,20,20,20,0,0,1,20,40Z" transform="translate(50 437)"/><path class="d" d="M-214.8,56h-18.4a.807.807,0,0,1-.8-.812V42.611a.807.807,0,0,1,.8-.812l2.3.637V36.9a.9.9,0,0,1,.9-.9h12a.9.9,0,0,1,.9.9v5.53l2.3-.63a.811.811,0,0,1,.8.812V55.188A.806.806,0,0,1-214.8,56Zm-14.3-18.2h0v5.135l5.051,1.4,5.15-1.411V37.8h-10.2Zm8.2,3.749h-6.2a.3.3,0,0,1-.3-.3v-1a.3.3,0,0,1,.3-.3h6.2a.3.3,0,0,1,.3.3v1A.3.3,0,0,1-220.9,41.549Z" transform="translate(294 411)"/></g></svg>