<svg xmlns="http://www.w3.org/2000/svg" xmlns:xlink="http://www.w3.org/1999/xlink" width="40" height="40" viewBox="0 0 40 40"><defs><style>.a{fill:#3879f7;opacity:0.4;}.b{clip-path:url(#a);}.c{fill:#719cff;}.d{fill:#fff;}</style><clipPath id="a"><rect class="a" width="40" height="40" transform="translate(50 437)"/></clipPath></defs><g class="b" transform="translate(-50 -437)"><path class="c" d="M20,40A20,20,0,1,1,40,20,20,20,0,0,1,20,40Z" transform="translate(50 437)"/><path class="d" d="M350.991,106.446v13.613H342.34v-5.511c-.585.245-.565-.271-.309-1.017l-.035.045c-1.57.988-.427-1.488.343-2.964v-4.47a1.436,1.436,0,0,0,2.249,0C345.723,104.867,350.991,106.446,350.991,106.446Zm-6.137-2.282a.347.347,0,0,0,.27.129h.686a.148.148,0,0,1-.133-.085,3.018,3.018,0,0,1-.232-2.5,2.438,2.438,0,0,1,1.365-1.265.147.147,0,0,1,.163.229.712.712,0,0,0-.01.987,1.953,1.953,0,0,1,.2,2.579.148.148,0,0,1-.115.055h1a.346.346,0,0,0,.314-.2c1.066-2.266,1.251-4.248.548-5.89a5.752,5.752,0,0,0-3.216-2.979.347.347,0,0,0-.385.539,1.678,1.678,0,0,1,.024,2.324A4.6,4.6,0,0,0,344.853,104.165Zm0,0" transform="translate(-276.101 349.395)"/></g></svg>