<svg xmlns="http://www.w3.org/2000/svg" xmlns:xlink="http://www.w3.org/1999/xlink" width="40" height="40" viewBox="0 0 40 40"><defs><style>.a{fill:#3879f7;opacity:0.4;}.b{clip-path:url(#a);}.c{fill:#f5b216;}.d{fill:#fff;}</style><clipPath id="a"><rect class="a" width="40" height="40" transform="translate(50 437)"/></clipPath></defs><g class="b" transform="translate(-50 -437)"><path class="c" d="M20,40A20,20,0,1,1,40,20,20,20,0,0,1,20,40Z" transform="translate(50 437)"/><path class="d" d="M142.206,86.847l9.775,9.4a.908.908,0,0,1,.045,1.249.843.843,0,0,1-.627.284h-.594v9.466a1.755,1.755,0,0,1-1.725,1.784h-15.1a1.757,1.757,0,0,1-1.725-1.784V97.776h-.53a.83.83,0,0,1-.6-.258.912.912,0,0,1,.024-1.281l9.9-9.4a.836.836,0,0,1,1.16.006Zm-1.922,7.946-.257.076q-1.178.359-2.369.667a16.678,16.678,0,0,1-1.692.346l.052.742a5.806,5.806,0,0,0,1.538-.076v1.473h-1.6V99.1h1.538a17.042,17.042,0,0,1-.9,2.228,10.957,10.957,0,0,1-1.012,1.666l.281.755a3.718,3.718,0,0,0,.846-.755,6.7,6.7,0,0,0,.846-1.2V106h.716a.7.7,0,0,0,.476-.18.752.752,0,0,0,.231-.55V101.3a3.471,3.471,0,0,0,1.484.922l.346-.539q-.151-.163-.294-.331a18.426,18.426,0,0,0-1.307-1.513l-.231.193V99.1h1.539V98.021h-1.539V96.254q.783-.179,1.551-.435l-.245-1.023Zm6.443.3h-5.74v9.428h-1.078V105.6h7.711v-1.088h-.9V95.09Zm-1.5,7.313v2.114H142.46V102.4h2.767Zm0-3.087v2.01H142.46V99.318h2.767Zm0-3.152v2.075H142.46V96.163h2.767Z" transform="translate(-71.561 359.182)"/></g></svg>