<svg xmlns="http://www.w3.org/2000/svg" xmlns:xlink="http://www.w3.org/1999/xlink" width="40" height="40" viewBox="0 0 40 40"><defs><style>.a{fill:#3879f7;opacity:0.4;}.b{clip-path:url(#a);}.c{fill:#65bac8;}.d{fill:#fff;}</style><clipPath id="a"><rect class="a" width="40" height="40" transform="translate(50 437)"/></clipPath></defs><g class="b" transform="translate(-50 -437)"><path class="c" d="M20,40A20,20,0,1,1,40,20,20,20,0,0,1,20,40Z" transform="translate(50 437)"/><path class="d" d="M116.035,99.9a2.044,2.044,0,0,1,.851,1.673v14.339a1.574,1.574,0,0,1-1.547,1.593h-16.4A1.877,1.877,0,0,1,97,115.517V97.992a1.978,1.978,0,0,1,.7-1.434A2.4,2.4,0,0,1,98.934,96H111.9a1.381,1.381,0,0,1,1.2.478Zm-4.757,2.071a1,1,0,0,0,0,1.991H113.6a1,1,0,0,0,0-1.991Zm-7.7-3.306a3.683,3.683,0,0,0,0,5.058,3.467,3.467,0,0,0,2.475,1.075,3.4,3.4,0,0,0,2.475-1.076,3.682,3.682,0,0,0,0-5.058,3.386,3.386,0,0,0-4.951,0Zm10.984,10.475a.785.785,0,0,0-.774-.8H99.707a.8.8,0,0,0,0,1.594h14.084a.785.785,0,0,0,.774-.8Zm0,3.187a.785.785,0,0,0-.774-.8H99.707a.8.8,0,0,0,0,1.594h14.084A.785.785,0,0,0,114.565,112.332ZM101.8,102.971a.982.982,0,0,0-.966-1H99.514a1,1,0,0,0,0,1.991h1.322A.982.982,0,0,0,101.8,102.971Zm4.255-4.541.657,1.911,2.011.04-1.586,1.274.541,1.992-1.624-1.195-1.624,1.195.541-1.991-1.586-1.274,1.972-.04Z" transform="translate(-36.44 350.249)"/></g></svg>