<svg xmlns="http://www.w3.org/2000/svg" xmlns:xlink="http://www.w3.org/1999/xlink" width="40" height="40" viewBox="0 0 40 40"><defs><style>.a{fill:#3879f7;opacity:0.4;}.b{clip-path:url(#a);}.c{fill:#f68d47;}.d{fill:#fff;}</style><clipPath id="a"><rect class="a" width="40" height="40" transform="translate(50 437)"/></clipPath></defs><g class="b" transform="translate(-50 -437)"><path class="c" d="M20,40A20,20,0,1,1,40,20,20,20,0,0,1,20,40Z" transform="translate(50 437)"/><g transform="translate(-5.965 383.914)"><path class="d" d="M144.883,61.12a2.846,2.846,0,0,0-2.8,2.85,2.808,2.808,0,0,0,5.611,0,2.851,2.851,0,0,0-2.808-2.85Z" transform="translate(-75.995 0)"/><path class="d" d="M72.119,66.624a4.15,4.15,0,0,1-6.479,0A4.876,4.876,0,0,0,64,70.282v1.4a.7.7,0,0,0,.684.7H73.1a.7.7,0,0,0,.7-.7v-1.4A4.867,4.867,0,0,0,72.119,66.624ZM83,61.12a2.846,2.846,0,0,0-2.8,2.85,2.808,2.808,0,0,0,5.611,0A2.85,2.85,0,0,0,83,61.12Z" transform="translate(0 0)"/><path class="d" d="M420.9,267.2a4.145,4.145,0,0,1-6.474,0,4.868,4.868,0,0,0-1.667,3.658v1.4a.7.7,0,0,0,.7.7h8.41a.7.7,0,0,0,.718-.7v-1.4A4.867,4.867,0,0,0,420.9,267.2Zm-10.278,7.162a2.808,2.808,0,1,0,2.833,2.795A2.846,2.846,0,0,0,410.623,274.362Z" transform="translate(-334.658 -200.576)"/><path class="d" d="M231.847,286.276a4.248,4.248,0,0,1-6.573,0,4.868,4.868,0,0,0-1.671,3.658v1.449a.7.7,0,0,0,.7.7h8.5a.7.7,0,0,0,.7-.7v-1.449A4.876,4.876,0,0,0,231.847,286.276Zm4.423-5.457h-1.423a5.754,5.754,0,0,1-1.568,4.932,6.2,6.2,0,0,1,.855,1.167,7.735,7.735,0,0,0,2.184-5.4A4.791,4.791,0,0,0,236.27,280.818Zm-9.444-6.8a6.617,6.617,0,0,1,.667,1.308,6.931,6.931,0,0,1,2.184,0,6.209,6.209,0,0,1,.611-1.308A8.332,8.332,0,0,0,226.826,274.015Zm-4.624,7.5a6.388,6.388,0,0,1,.073-.7h-1.436c-.021.231-.038.466-.038.7a7.735,7.735,0,0,0,2.222,5.406,6.41,6.41,0,0,1,.855-1.175A6.333,6.333,0,0,1,222.2,281.519Z" transform="translate(-152.613 -207.032)"/></g></g></svg>