<svg xmlns="http://www.w3.org/2000/svg" xmlns:xlink="http://www.w3.org/1999/xlink" width="40" height="40" viewBox="0 0 40 40"><defs><style>.a{fill:#3879f7;opacity:0.4;}.b{clip-path:url(#a);}.c{fill:#d94646;}.d{fill:#fff;}</style><clipPath id="a"><rect class="a" width="40" height="40" transform="translate(50 437)"/></clipPath></defs><g class="b" transform="translate(-50 -437)"><path class="c" d="M20,40A20,20,0,1,1,40,20,20,20,0,0,1,20,40Z" transform="translate(50 437)"/><path class="d" d="M22.582,102.912H21.8v7.042a.8.8,0,0,1-.224.556l-2.113-3.055-2.113,3.055a.8.8,0,0,1-.223-.556v-7.042H2.336A2.2,2.2,0,0,0,0,104.956v13.631a2.2,2.2,0,0,0,2.336,2.044H22.582a2.2,2.2,0,0,0,2.337-2.045v-13.63a2.2,2.2,0,0,0-2.337-2.044Zm-8.566,10.9a.735.735,0,0,1-.778.681H4.672a.687.687,0,1,1,0-1.362h8.566a.735.735,0,0,1,.778.681Zm-8.5-6.271,1.075-1.907,1.075,1.907,2.4.306-1.739,1.484.409,2.1-2.151-.99-2.15.99.411-2.1-1.74-1.484,2.4-.3Zm15.505,10.361H4.673a.688.688,0,1,1,0-1.363H21.026a.688.688,0,1,1,0,1.363Z" transform="translate(57.54 345.228)"/></g></svg>