<svg xmlns="http://www.w3.org/2000/svg" xmlns:xlink="http://www.w3.org/1999/xlink" width="40" height="40" viewBox="0 0 40 40"><defs><style>.a{fill:#3879f7;opacity:0.4;}.b{clip-path:url(#a);}.c{fill:#f17547;}.d{fill:#fff;}</style><clipPath id="a"><rect class="a" width="40" height="40" transform="translate(50 437)"/></clipPath></defs><g class="b" transform="translate(-50 -437)"><path class="c" d="M20,40A20,20,0,1,1,40,20,20,20,0,0,1,20,40Z" transform="translate(50 437)"/><path class="d" d="M55.748,73.923l-1.088-.8V85.644a.926.926,0,0,1-.9.953H37.645a.926.926,0,0,1-.9-.953V73.209L35.7,74a.643.643,0,0,1-.94-.13.741.741,0,0,1,.12-1l10.741-8.686.008-.008h0a.171.171,0,0,1,.221,0l4.324,3.62V65.912a.7.7,0,0,1,.687-.729.692.692,0,0,1,.657.712v2.968l5.028,3.93a.74.74,0,0,1,.125,1A.644.644,0,0,1,55.748,73.923ZM45.481,71.888a1.083,1.083,0,1,0,1.083,1.083A1.078,1.078,0,0,0,45.481,71.888Zm5.211,1.088a1.083,1.083,0,1,0,1.083,1.083A1.078,1.078,0,0,0,50.692,72.976Zm-9.027,3.6a1.083,1.083,0,1,0-1.083,1.083A1.078,1.078,0,0,0,41.666,76.575Zm9.355-1.083h-.664a1.333,1.333,0,0,0-1.241.842l-.985,1.7-.9-2.311a.348.348,0,0,0-.09-.138,1.45,1.45,0,0,0-1.3-.817h-.719A1.451,1.451,0,0,0,43.686,76l-.948,2.431-1.1-.637a.325.325,0,0,0-.178-.04,1.454,1.454,0,0,0-.516-.1h-.724A1.445,1.445,0,0,0,38.771,79.1v1.446a1.453,1.453,0,0,0,.719,1.246v1.281a1.083,1.083,0,0,0,2.166,0V81.792a1.438,1.438,0,0,0,.722-1.246V79.1h.01c0-.05,0-.1-.008-.153l.479.276a.317.317,0,0,0,.431-.115.1.1,0,0,0,.02-.048.4.4,0,0,0,.155-.2l.206-.526v.038a1.448,1.448,0,0,0,.85,1.316,1.045,1.045,0,0,0-.13.489v2.885a1.083,1.083,0,0,0,2.166,0v-2.88a1.076,1.076,0,0,0-.13-.489,1.436,1.436,0,0,0,.85-1.316v-.226l.361.925a.425.425,0,0,0,.544.241c.008,0,.013-.008.02-.01a.42.42,0,0,0,.273-.2l.544-.942v.652a1.338,1.338,0,0,0,.787,1.216.919.919,0,0,0-.12.451v2.665a1,1,0,1,0,2,0V80.486a.939.939,0,0,0-.12-.451,1.328,1.328,0,0,0,.787-1.216l0-2a1.324,1.324,0,0,0-1.329-1.326Z" transform="translate(24.28 381.662)"/></g></svg>