<svg xmlns="http://www.w3.org/2000/svg" xmlns:xlink="http://www.w3.org/1999/xlink" width="40" height="40" viewBox="0 0 40 40"><defs><style>.a{fill:#3879f7;opacity:0.4;}.b{clip-path:url(#a);}.c{fill:#5b8ee5;}.d{fill:#fff;}</style><clipPath id="a"><rect class="a" width="40" height="40" transform="translate(50 437)"/></clipPath></defs><g class="b" transform="translate(-50 -437)"><path class="c" d="M20,40A20,20,0,1,1,40,20,20,20,0,0,1,20,40Z" transform="translate(50 437)"/><g transform="translate(-60.37 339.901)"><path class="d" d="M487.748,517.122a.818.818,0,0,0-1.165,0L481.4,522.3a.825.825,0,0,0-.242.583V525a.824.824,0,0,0,.824.824H484.1a.824.824,0,0,0,.583-.242l5.181-5.181a.824.824,0,0,0,0-1.165Zm0,0,2.181,1.052-1.112-1.112a1.258,1.258,0,1,1,1.779-1.779l1.112,1.112a1.258,1.258,0,0,1-1.779,1.779Z" transform="translate(-349.884 -397.737)"/><path class="d" d="M138.024,106.11H123.738a2.2,2.2,0,0,0-2.2,2.2v17.583a2.2,2.2,0,0,0,2.2,2.2h5.885v-2.555a1.176,1.176,0,0,1,.346-.835l7.423-7.429a2.578,2.578,0,0,1,1.374-.78,1.74,1.74,0,0,1,.7,0,1.1,1.1,0,0,0,.758-1.039v-7.143A2.2,2.2,0,0,0,138.024,106.11ZM124.681,111.1h5.458a.682.682,0,1,1,0,1.365h-5.458a.682.682,0,0,1,0-1.365Zm0,3.639h5.458a.682.682,0,1,1,0,1.365h-5.458a.682.682,0,0,1,0-1.365Zm5.913,5h-5.913a.682.682,0,0,1,0-1.365h5.913a.682.682,0,1,1,0,1.365Z" transform="translate(0 0)"/></g></g></svg>