<svg xmlns="http://www.w3.org/2000/svg" xmlns:xlink="http://www.w3.org/1999/xlink" width="40" height="40" viewBox="0 0 40 40"><defs><style>.a{fill:#3879f7;opacity:0.4;}.b{clip-path:url(#a);}.c{fill:#6092f8;}.d{fill:#fff;}</style><clipPath id="a"><rect class="a" width="40" height="40" transform="translate(50 437)"/></clipPath></defs><g class="b" transform="translate(-50 -437)"><path class="c" d="M20,40A20,20,0,1,1,40,20,20,20,0,0,1,20,40Z" transform="translate(50 437)"/><g transform="translate(59.359 444.797)"><path class="d" d="M288.838,129.05a.266.266,0,0,1-.4-.339.167.167,0,0,0,.234.024.164.164,0,0,0,.058-.15.265.265,0,0,1,.106.465Z" transform="translate(-273.327 -125.52)"/><path class="d" d="M85.206,20.618c-.265-1.008-2.166-.079-3.74-4-.918-2.289-.057-5.589,1.7-8.455-.079-.324,0-.537-.474-.89a3.323,3.323,0,0,0-2.07,0,7.332,7.332,0,0,1,3.754-.831q.121-.152.246-.3a15.645,15.645,0,0,1,1.949-2.881c.9-1.07,1.9-1.573,1.616-3.255a7.41,7.41,0,0,1,2.572,1.779c-.131.039-.265.079-.4.124-.271.091-.545.188-.815.3s-.535.228-.794.352-.506.26-.742.4-.459.278-.663.422-.393.286-.566.419-.323.264-.449.388-.243.224-.328.318c-.174.184-.271.291-.271.291s.115-.088.312-.245c.1-.081.224-.166.362-.272q.11-.085.227-.161l.253-.175.282-.18c.1-.064.2-.125.3-.187s.212-.129.326-.189.225-.13.345-.189c.235-.126.484-.244.738-.364s.515-.231.781-.335.531-.207.8-.3l.788-.266c.027-.009.053-.02.079-.032a19.607,19.607,0,0,1,7.16-.1c1.218.094,2.085.283,1.659.858S98.63,4.137,98.685,4.983a3.117,3.117,0,0,0,1.512-.328c.379-.163,1.519-.12.7.456s-1.714,2.078-3.13,3.481A16.961,16.961,0,0,1,93.937,11.1a1.316,1.316,0,0,0-.4.734,9.283,9.283,0,0,1-.784,2.711c-1.272-1.366-1.411-1.723-1.365-2.114a.443.443,0,0,1,.013-.065c.113-.044.223-.088.328-.133.169-.07.327-.138.472-.206.58-.264.947-.481.947-.481l-.28.085-.732.231-.487.155c-.172.057-.355.11-.543.171-.094.029-.189.061-.287.089s-.2.055-.295.086-.2.062-.3.088l-.3.078c-.2.057-.407.107-.609.157s-.4.108-.592.159c-.383.109-.738.22-1.038.333l-.215.081-.191.082c-.121.048-.221.106-.3.148a1.745,1.745,0,0,0-.185.113l-.064.042.072-.027c.048-.016.113-.046.2-.072s.194-.062.319-.092.264-.068.418-.1l.131-.03c0,.015-.011.028-.015.043a8.388,8.388,0,0,1-1.343,2.83c.465-.963.727-1.929.487-2.038a7.645,7.645,0,0,1-.779-.278.183.183,0,0,1-.031-.029,4.851,4.851,0,0,0-1.743,1.434,2.76,2.76,0,0,0,.1,3.268c.549.493,1.111.757,1.51.249s2-1.755,3.011-1.35c-.913.617-1.271,2-2.766,2.31.746,1.082-.227,3.519.146,4.649-1.578-1.061-.971-2.78-1.235-3.788Zm6.442-17.28a7.352,7.352,0,0,0-.145.912c-.017.191-.031.4-.029.619a6.132,6.132,0,0,0,.035.693,5.248,5.248,0,0,0,.132.734c.028.124.071.246.109.369s.089.243.143.362a3.513,3.513,0,0,0,.18.346,3.241,3.241,0,0,0,.211.325c.072.107.161.2.241.3s.176.178.269.258a3.5,3.5,0,0,0,.575.4c.1.05.192.106.289.147l.28.113c.091.032.18.057.264.082l.123.036c.04.01.08.017.118.025.153.028.284.064.4.073.222.026.348.038.348.038s-.124-.031-.34-.079c-.109-.019-.236-.067-.383-.109-.037-.012-.075-.022-.113-.035l-.116-.047c-.079-.033-.165-.061-.251-.1l-.262-.128c-.09-.045-.177-.1-.269-.155a3.892,3.892,0,0,1-.53-.4c-.085-.078-.163-.166-.246-.251l-.112-.14a1.446,1.446,0,0,1-.11-.144,3.073,3.073,0,0,1-.2-.308,3.424,3.424,0,0,1-.168-.329c-.052-.112-.1-.228-.14-.343s-.08-.233-.108-.352a5.975,5.975,0,0,1-.145-.7c-.028-.232-.055-.458-.062-.673s-.012-.419-.008-.608.013-.362.024-.515q.014-.2.039-.4c.027-.22.048-.345.048-.345s-.04.121-.089.338Zm3.909-.525a.656.656,0,1,0,.922.1A.656.656,0,0,0,95.557,2.812Zm-5.7,8.965.015,0,.038-.006.1-.018c.085-.016.207-.042.36-.079.306-.073.737-.192,1.243-.358.253-.083.525-.179.811-.284s.584-.224.89-.35.622-.263.936-.406a10.309,10.309,0,0,0,.948-.481,11.42,11.42,0,0,0,1.693-1.21,13.333,13.333,0,0,0,1.285-1.271c.35-.4.618-.745.8-.995s.272-.4.272-.4-.1.145-.291.385-.475.574-.842.95a13.2,13.2,0,0,1-1.332,1.194,11.2,11.2,0,0,1-1.715,1.1,9.807,9.807,0,0,1-.942.42c-.323.126-.64.243-.947.352s-.608.207-.894.3-.557.168-.808.235c-.5.136-.924.228-1.219.282-.147.027-.263.045-.34.056l-.087.011-.026,0h-.007a.288.288,0,1,0,.062.572ZM86.431,9.945a.352.352,0,0,0,.176.051.855.855,0,0,0,.256-.036l.405-.094c.269-.058.526-.117.773-.177s.48-.117.694-.181l.306-.1.141-.047.034-.011a.3.3,0,0,0,.035-.015l.062-.029c.041-.02.08-.036.118-.058l.108-.066a2.106,2.106,0,0,0,.176-.13,1.493,1.493,0,0,0,.209-.219.766.766,0,0,0,.061-.087.758.758,0,0,1-.073.076A1.745,1.745,0,0,1,89.679,9a1.99,1.99,0,0,1-.182.1l-.105.049c-.036.017-.08.029-.122.044L89.2,9.22a.187.187,0,0,1-.03.009l-.034.007L89,9.267l-.305.068c-.1.026-.221.04-.337.062l-.361.066-.787.138-.417.081a.592.592,0,0,1-.166.019.1.1,0,0,1,.009-.016.63.63,0,0,1,.044-.079l.054-.085.062-.085q.061-.087.131-.167c.046-.054.089-.111.139-.163.1-.108.191-.215.293-.316.051-.051.1-.1.151-.153l.156-.145c.1-.1.209-.192.317-.285l.159-.139c.048-.042.1-.083.156-.124a5.576,5.576,0,0,1,.65-.424c.217-.121.428-.228.627-.32q.482-.223.981-.408c.241-.09.381-.137.381-.137l-.1.018c-.068.013-.168.03-.294.06q-.228.051-.453.116c-.173.051-.369.109-.578.187a6.481,6.481,0,0,0-.666.28,4.718,4.718,0,0,0-.7.409c-.058.043-.116.081-.175.129l-.164.133-.166.135c-.055.046-.109.1-.164.147l-.165.15c-.054.051-.106.1-.159.157-.108.1-.209.215-.31.327-.052.055-.1.116-.145.174s-.095.119-.138.182l-.066.094-.062.1a.917.917,0,0,0-.06.113.366.366,0,0,0-.042.161.219.219,0,0,0,.005.058.237.237,0,0,0,.021.063.249.249,0,0,0,.088.1Zm-4.247,6.627a5.43,5.43,0,0,1-.162-.969L82,15.339v-.271c-.006-.183.014-.369.026-.559,0-.095.021-.189.032-.285s.023-.192.04-.288c.039-.192.067-.387.12-.58l.072-.291.086-.29c.053-.194.129-.383.192-.575.146-.378.3-.754.475-1.112s.358-.706.547-1.036.385-.641.578-.931.382-.559.564-.8.353-.462.508-.653q.2-.246.412-.483.133-.148.271-.291l.1-.1h0a.345.345,0,0,0-.487-.49l-.012.013-.1.11q-.144.164-.282.335-.208.259-.4.526c-.15.206-.317.44-.49.7s-.354.548-.537.856-.366.639-.543.988-.35.714-.506,1.094-.3.772-.428,1.169c-.055.2-.122.4-.166.6l-.073.3-.059.3c-.043.2-.062.4-.092.6-.012.1-.017.2-.026.3s-.019.2-.018.3c0,.2-.012.388,0,.576q.007.141.015.278l.034.27a5.561,5.561,0,0,0,.217.982l.033.111.041.105.08.2a3.311,3.311,0,0,0,.168.365,5.4,5.4,0,0,0,.326.564c.1.15.191.259.247.337l.089.118-.083-.123c-.052-.081-.137-.194-.229-.348a5.36,5.36,0,0,1-.293-.575,3.234,3.234,0,0,1-.147-.368l-.068-.2-.035-.105-.026-.11Z" transform="translate(-80.624 0)"/><path class="d" d="M5,0a5,5,0,1,0,5,5A5.006,5.006,0,0,0,5,0ZM2.984,5.076a.5.5,0,0,1,0-1h1.5v-1.8a.5.5,0,0,1,1,0v1.8h1.5a.5.5,0,1,1,0,1h-1.5v1H7.214a.5.5,0,0,1,0,1H6.738v.651a.5.5,0,0,1-1,0V7.078h-1.5v.651a.5.5,0,0,1-1,0V7.078H2.785a.5.5,0,0,1,0-1h1.7v-1Z" transform="translate(21.281 24.203) rotate(180)"/></g></g></svg>