<svg xmlns="http://www.w3.org/2000/svg" xmlns:xlink="http://www.w3.org/1999/xlink" width="40" height="40" viewBox="0 0 40 40"><defs><style>.a{fill:#3879f7;opacity:0.4;}.b{clip-path:url(#a);}.c{fill:#6682f5;}.d{fill:#fff;}</style><clipPath id="a"><rect class="a" width="40" height="40" transform="translate(50 437)"/></clipPath></defs><g class="b" transform="translate(-50 -437)"><path class="c" d="M20,40A20,20,0,1,1,40,20,20,20,0,0,1,20,40Z" transform="translate(50 437)"/><g transform="translate(45.703 320.84)"><path class="d" d="M219.965,375.552c-.179-.119-.179-.537-.179-.537.06-.06.06-.06.119-.06a1.136,1.136,0,1,1,2.27,0c.06,0,.06,0,.119.06a.54.54,0,0,1-.179.537H222c-.06.119-.179.956-.956.956s-.9-.836-.956-.956Zm-1.015,3.464h4.24a.251.251,0,0,0,.239-.239V377.7a.856.856,0,0,0-.119-.418,3.279,3.279,0,0,0-1.254-.6l-.956,1.553-.956-1.553a3.28,3.28,0,0,0-1.254.6.736.736,0,0,0-.119.418v1.075C218.711,378.837,218.711,379.016,218.95,379.016Z" transform="translate(-201.133 -240.629)"/><path class="d" d="M35.427,128H14.171a1.335,1.335,0,0,0-1.371,1.27v14.492a1.335,1.335,0,0,0,1.371,1.27H35.427a1.335,1.335,0,0,0,1.371-1.27V129.27A1.335,1.335,0,0,0,35.427,128Zm-20.82,6.582v-.231a1.2,1.2,0,0,1,.249-.346c1.745-1.386,3.428-2.714,5.111-4.1a.636.636,0,0,1,.873,0c1.621,1.328,3.241,2.6,4.862,3.868a2.051,2.051,0,0,1,.5.52v.289a.653.653,0,0,1-.5.462.794.794,0,0,1-.623-.173v4.619a.431.431,0,0,1-.312.462H16.041a.457.457,0,0,1-.312-.462v-4.619c-.062.058-.125.058-.125.115a.6.6,0,0,1-.748-.058,1.205,1.205,0,0,1-.249-.346ZM34.181,143.3H15.48a.7.7,0,1,1,0-1.386h18.7a.7.7,0,1,1,0,1.386Zm0-4.042H29.568a.7.7,0,1,1,0-1.386h4.613a.751.751,0,0,1,.81.693A.793.793,0,0,1,34.181,139.259Zm0-4.042H29.568a.7.7,0,1,1,0-1.386h4.613a.751.751,0,0,1,.81.693A.793.793,0,0,1,34.181,135.217Zm0-4.1H26.825a.751.751,0,0,1-.81-.693.793.793,0,0,1,.81-.693h7.418a.751.751,0,0,1,.81.693.856.856,0,0,1-.873.693Z" transform="translate(-0.502 -0.356)"/></g></g></svg>