<svg xmlns="http://www.w3.org/2000/svg" xmlns:xlink="http://www.w3.org/1999/xlink" width="40" height="40" viewBox="0 0 40 40"><defs><style>.a{fill:#3879f7;opacity:0.4;}.b{clip-path:url(#a);}.c{fill:#e37348;}.d{fill:#fff;}</style><clipPath id="a"><rect class="a" width="40" height="40" transform="translate(50 437)"/></clipPath></defs><g class="b" transform="translate(-50 -437)"><path class="c" d="M20,40A20,20,0,1,1,40,20,20,20,0,0,1,20,40Z" transform="translate(50 437)"/><g transform="translate(-2.355 -3.486)"><path class="d" d="M577.46,284.78v5.545H583Z" transform="translate(-501.536 165.041)"/><path class="d" d="M333.92,280.193H326.9a1.024,1.024,0,0,1-1.024-1.024v-7.016a.947.947,0,0,1,.031-.153h-7.2a3.075,3.075,0,0,0-3.072,3.072v16.386a3.075,3.075,0,0,0,3.072,3.072H331a3.075,3.075,0,0,0,3.072-3.072v-11.3A.96.96,0,0,1,333.92,280.193Zm-13.681-.557a.4.4,0,0,1,.062.01s.032-.027.042-.039a3.293,3.293,0,0,1-.316-.405l.366-.364a2.1,2.1,0,0,0,2.518.506l-1.51-1.515-.433.432-.65-.648,1.148-1.149a.714.714,0,0,0,.728-.151l.36.359-.576.579,1.51,1.517a2.228,2.228,0,0,0-1.295-3.03,2.3,2.3,0,0,1,1.878,3.607l.426.431-.581.572-.422-.426a2.465,2.465,0,0,1-2.846-.047l-.056.055a.324.324,0,0,1,.009.065.362.362,0,0,1-.36.355.354.354,0,0,1-.354-.353A.362.362,0,0,1,320.239,279.636Zm8.713,9.773H320.76a1.024,1.024,0,1,1,0-2.048h8.192a1.024,1.024,0,0,1,0,2.048Zm0-4.1H320.76a1.024,1.024,0,1,1,0-2.048h8.192a1.024,1.024,0,0,1,0,2.048Z" transform="translate(-252.005 177.221)"/></g></g></svg>