<svg xmlns="http://www.w3.org/2000/svg" xmlns:xlink="http://www.w3.org/1999/xlink" width="40" height="40" viewBox="0 0 40 40"><defs><style>.a{fill:#3879f7;opacity:0.4;}.b{clip-path:url(#a);}.c{fill:#37d2b2;}.d{fill:#fff;}</style><clipPath id="a"><rect class="a" width="40" height="40" transform="translate(50 437)"/></clipPath></defs><g class="b" transform="translate(-50 -437)"><path class="c" d="M20,40A20,20,0,1,1,40,20,20,20,0,0,1,20,40Z" transform="translate(50 437)"/><path class="d" d="M183.468,73.138a4.1,4.1,0,1,1-4.161,4.1,4.1,4.1,0,0,1,4.161-4.1m8.947,14.8c-.457-.963-1.119-2.046-1.647-2.921-.85-1.406-1.8-2.525-3.773-2.525h-6.451c-3.039,0-4.135,3.1-5.1,4.894a14.219,14.219,0,0,0-1.6,4.634,5.192,5.192,0,0,0,1.8,4.118,10.363,10.363,0,0,0,5.5,1.973c1.915.156,3.644-.76,3.824-1.8.208-1.239-.588-2.1-2.235-2.03a9.824,9.824,0,0,1-4.746-.875c-1.27-.625.248-.6.573-.625a3.9,3.9,0,0,0,2-.578c.411-.344.04-.234-.494-1.874-.405-1.244.18-1.765.5-1.869.788-.25,1.244.094,1.71.932a9.619,9.619,0,0,0,.944,1.426,4.332,4.332,0,0,0,1.219,1.161,4.061,4.061,0,0,0,1.73.557,2.937,2.937,0,0,0,1.013-.078c-.53.489-2.369,1.754-1.1,3.1.677.718,2.189.443,2.9.172a8.278,8.278,0,0,0,2.977-2.379,4.6,4.6,0,0,0,.451-5.414m-5.745,4.03a2.848,2.848,0,1,1,2.891-2.848,2.848,2.848,0,0,1-2.891,2.848" transform="translate(-113.471 371.366)"/></g></svg>