<svg xmlns="http://www.w3.org/2000/svg" xmlns:xlink="http://www.w3.org/1999/xlink" width="40" height="40" viewBox="0 0 40 40"><defs><style>.a{fill:#3879f7;opacity:0.4;}.b{clip-path:url(#a);}.c{fill:#00a29a;}.d{fill:#fff;}</style><clipPath id="a"><rect class="a" width="40" height="40" transform="translate(50 437)"/></clipPath></defs><g class="b" transform="translate(-50 -437)"><path class="c" d="M20,40A20,20,0,1,1,40,20,20,20,0,0,1,20,40Z" transform="translate(50 437)"/><path class="d" d="M229.947,199.872h-2.779v-4.6a1.035,1.035,0,1,0-2.069,0v4.6h-8.986v-4.6a1.035,1.035,0,1,0-2.069,0v4.6h-2.808s-.562-.015-.65.731v2.359a1.413,1.413,0,0,0,.325.806c.3.3,3.311,3.787,4.02,4.431s1.242,3.034,1.182,4.587h2.246v1.7h4.464v-1.7h2.246c-.059-1.552.472-3.942,1.182-4.587s3.725-4.132,4.02-4.431a1.414,1.414,0,0,0,.325-.806V200.6c-.088-.746-.649-.731-.649-.731Zm-11.2,10.346,1.36-3.523h-2.719l4.7-4.539-1.064,3.315,2.778.06Z" transform="translate(-150.59 252.643)"/></g></svg>