<svg xmlns="http://www.w3.org/2000/svg" xmlns:xlink="http://www.w3.org/1999/xlink" width="40" height="40" viewBox="0 0 40 40"><defs><style>.a{fill:#3879f7;opacity:0.4;}.b{clip-path:url(#a);}.c{fill:#469df5;}.d{fill:#fff;}</style><clipPath id="a"><rect class="a" width="40" height="40" transform="translate(50 437)"/></clipPath></defs><g class="b" transform="translate(-50 -437)"><path class="c" d="M20,40A20,20,0,1,1,40,20,20,20,0,0,1,20,40Z" transform="translate(50 437)"/><path class="d" d="M132.735,138.573h3.621a1.114,1.114,0,0,1,1.106.984l.008.131v3.621a4.736,4.736,0,1,1-4.965-4.73l.23-.006h0Zm10.569,0a4.736,4.736,0,1,1-4.736,4.736v-3.621a1.114,1.114,0,0,1,1.114-1.114H143.3ZM132.735,128a4.736,4.736,0,0,1,4.736,4.736v3.621a1.114,1.114,0,0,1-1.114,1.114h-3.621a4.736,4.736,0,1,1,0-9.471Zm10.569,0a4.736,4.736,0,0,1,.23,9.466l-.23.006h-3.621a1.114,1.114,0,0,1-1.108-.984l-.007-.13v-3.621A4.736,4.736,0,0,1,143.3,128Z" transform="translate(-68.019 318.978)"/></g></svg>